<svg width="34" height="34" viewBox="0 0 34 34" fill="none" xmlns="http://www.w3.org/2000/svg">
<g clip-path="url(#clip0_190_96)">
<path d="M34 6.45565C32.7491 7.01099 31.4047 7.38499 29.9937 7.55357C31.4344 6.69082 32.5408 5.32374 33.0607 3.69457C31.7135 4.49357 30.2203 5.0744 28.6308 5.38749C27.3601 4.03174 25.5453 3.18457 23.5393 3.18457C19.0357 3.18457 15.7264 7.3864 16.7436 11.7483C10.948 11.4579 5.80833 8.68124 2.36725 4.46099C0.53975 7.59607 1.4195 11.6973 4.52483 13.7742C3.383 13.7373 2.30633 13.4242 1.36708 12.9015C1.29058 16.1329 3.60683 19.1561 6.9615 19.829C5.97975 20.0953 4.9045 20.1577 3.81083 19.948C4.69767 22.719 7.27317 24.7349 10.3275 24.7916C7.395 27.0908 3.70033 28.1179 0 27.6816C3.08692 29.6607 6.75467 30.8152 10.693 30.8152C23.6442 30.8152 30.9612 19.8772 30.5192 10.0667C31.8821 9.08215 33.065 7.8539 34 6.45565Z" fill="#FE7C1B"/>
</g>
<defs>
<clipPath id="clip0_190_96">
<rect width="34" height="34" fill="white"/>
</clipPath>
</defs>
</svg>
