<svg height="4" preserveAspectRatio="none" viewBox="0 0 432 4" width="432" xmlns="http://www.w3.org/2000/svg"><path d="m173.841 535.287c-1.12-1.782-1.12-1.863 19.055-2.025 26.911-.243 52.695-.4 79.6-.567 94.172-.648 188.339-.81 283.632-.4 16.814.081 33.634.4 49.327.567-5.6 2.025-15.693 2.674-40.357 2.674-33.634 0-67.268-.162-100.9-.162-38.122 0-75.117.162-113.233.243-50.448.081-100.9.81-151.343.243-4.482-.081-8.97-.081-12.332-.162-4.479-.167-8.967-.329-13.449-.411z" fill="#fcc506" transform="translate(-173.454 -532.069)"/></svg>