<svg width="1440" height="15" viewBox="0 0 1440 15" fill="none" xmlns="http://www.w3.org/2000/svg" >
<path d="M1394.36 3.10721C1392.43 3.10721 1390.93 3.0954 1389.77 3.07658C1389.75 3.07746 1389.73 3.07746 1389.71 3.07658C1389.31 3.06477 1388.92 3.02233 1388.53 2.94969L1388.49 2.94313L1388.41 2.93219L1388.37 2.92562C1387.95 2.84773 1387.51 2.8031 1387.08 2.7926C1386.6 2.78341 1386.13 2.88581 1385.7 3.0919C1382.36 5.14587 1377.96 5.41017 1374.51 5.41017C1373.18 5.41017 1371.8 5.36335 1370.56 5.32178L1370.33 5.3139L1370.02 5.30077L1369.52 5.28109H1369.48C1368.14 5.23558 1366.86 5.19619 1365.6 5.19619H1365.57H1365.37C1346.27 5.84248 1325.81 6.5089 1305.99 7.15432L1305.34 7.17577L1304.14 7.21296L1293.52 7.56039C1290.82 7.5757 1288 7.76342 1285.5 7.9297L1285.41 7.93628L1285.29 7.94502L1285.26 7.94721C1282.64 8.12093 1279.92 8.30077 1277.25 8.31215C1274.09 8.33228 1267.53 8.47799 1259.22 8.66352L1258.95 8.67008C1236.03 9.18379 1197.68 14.418 1155.51 14.418C1143.31 14.418 1131.39 14.3432 1120.06 14.1953C1119.55 14.1953 1119.02 14.2019 1118.49 14.2019C1111.54 14.2019 1091.43 13.924 1084.67 13.658L1084.53 13.6514H1084.52L1084.38 13.6448L1084.35 13.6431C1077.5 13.3797 1070.43 13.1071 1063.46 13.1071H1062.23C1056.47 13.1351 1050.8 13.1508 1045.36 13.1508C1016.06 13.1508 987.807 8.41498 957.894 8.03429L957.552 8.02771L953.824 7.97959C950.013 7.90827 946.053 7.86844 942.058 7.86844C926.182 7.86844 911.055 8.41847 895.061 9.00045L894.646 9.01532L894.431 9.02408C887.723 9.26912 880.792 9.52203 873.865 9.7255C872.942 9.79726 872.298 9.85634 871.673 9.91804C868.855 10.1731 866.028 10.258 863.201 10.1758C856.76 10.1758 844.206 10.0651 819.185 9.84146L817.999 9.83271C798.771 9.6625 754.939 9.4332 718.151 9.13346C714.944 8.99388 711.693 8.82103 708.371 8.64207H708.297C700.652 8.23119 692.75 7.80937 685.092 7.80937C681.884 7.80937 678.957 7.88245 676.156 8.03429C671.116 8.33753 658.049 8.55894 620.982 8.55894C573.5 8.55894 535.172 12.547 521.773 11.4618C503.386 10.0567 486.079 9.78371 467.754 9.49753H467.679L466.41 9.47784C461.054 9.39295 455.519 9.30368 449.988 9.18072C440.282 8.86611 430.366 8.72828 417.831 8.72828C411.949 8.72828 406.114 8.75629 400.638 8.78517H399.851H399.412H398.963C394.678 8.78517 389.808 8.618 383.63 8.40534L383.614 8.40491L382.302 8.36116L381.484 8.33401C379.572 8.27013 377.458 8.19969 375.245 8.13625C365.321 7.83432 351.278 7.48951 330.591 7.48951C314.798 7.48951 288.32 3.32163 269.159 3.73427C262.794 4.01169 198.756 8.51649 189.751 8.51649C185.452 8.51649 181.075 8.48849 176.841 8.45961H176.308H175.873H175.783L175.561 8.45829C171.439 8.43028 166.361 8.39616 161.636 8.39616H158.062C133.646 8.53399 73.7173 10.9065 7.16598 12.4144L0 13.1609V0H1440V6.89529L1401.81 3.7255L1394.36 3.10721Z" fill="#00525E"/>
</svg>