<svg width="1135" height="408" viewBox="0 0 1135 408" fill="none" xmlns="http://www.w3.org/2000/svg">
<path d="M942 82.214V185L1017.02 102.786L1092 185V82.214L1017.02 0L942 82.214V82.214Z" fill="#FE7C1B"/>
<path d="M781 82.214V185L856.019 102.786L931 185V82.214L856.019 0L781 82.214V82.214Z" fill="#FE7C1B"/>
<path d="M20.88 363C19.68 363 18.72 362.64 18 361.92C17.28 361.2 16.92 360.24 16.92 359.04V241.14C16.92 239.94 17.28 238.98 18 238.26C18.72 237.42 19.68 237 20.88 237H91.08C92.4 237 93.42 237.36 94.14 238.08C94.86 238.8 95.22 239.82 95.22 241.14V243.84C95.22 245.04 94.8 246 93.96 246.72C93.24 247.44 92.28 247.8 91.08 247.8H28.26V293.7H87.12C88.44 293.7 89.46 294.06 90.18 294.78C90.9 295.5 91.26 296.52 91.26 297.84V300.54C91.26 301.74 90.84 302.7 90 303.42C89.28 304.14 88.32 304.5 87.12 304.5H28.26V352.2H92.52C93.84 352.2 94.86 352.56 95.58 353.28C96.3 354 96.66 355.02 96.66 356.34V359.04C96.66 360.24 96.24 361.2 95.4 361.92C94.68 362.64 93.72 363 92.52 363H20.88ZM127.403 363C126.203 363 125.243 362.64 124.523 361.92C123.803 361.2 123.443 360.24 123.443 359.04V241.14C123.443 239.94 123.803 238.98 124.523 238.26C125.243 237.42 126.203 237 127.403 237H131.183C132.743 237 134.003 237.72 134.963 239.16L201.383 340.68V241.14C201.383 239.94 201.743 238.98 202.463 238.26C203.183 237.42 204.143 237 205.343 237H208.583C209.903 237 210.923 237.36 211.643 238.08C212.363 238.8 212.723 239.82 212.723 241.14V358.86C212.723 360.06 212.363 361.08 211.643 361.92C210.923 362.64 209.963 363 208.763 363H204.803C203.243 363 201.983 362.28 201.023 360.84L134.783 259.68V359.04C134.783 360.24 134.363 361.2 133.523 361.92C132.803 362.64 131.843 363 130.643 363H127.403ZM289.15 364.8C273.55 364.8 261.85 360.42 254.05 351.66C246.25 342.78 242.05 330.9 241.45 316.02C241.33 312.78 241.27 307.5 241.27 300.18C241.27 292.74 241.33 287.34 241.45 283.98C242.05 269.1 246.25 257.28 254.05 248.52C261.85 239.64 273.55 235.2 289.15 235.2C299.83 235.2 308.71 237.18 315.79 241.14C322.87 244.98 328.09 249.9 331.45 255.9C334.93 261.78 336.85 267.84 337.21 274.08V274.44C337.21 275.4 336.85 276.18 336.13 276.78C335.41 277.38 334.51 277.68 333.43 277.68H329.83C327.67 277.68 326.35 276.42 325.87 273.9C323.59 263.7 319.45 256.5 313.45 252.3C307.45 248.1 299.35 246 289.15 246C277.87 246 269.11 249.18 262.87 255.54C256.63 261.9 253.27 271.68 252.79 284.88C252.67 288.12 252.61 293.1 252.61 299.82C252.61 306.54 252.67 311.64 252.79 315.12C253.27 328.32 256.63 338.1 262.87 344.46C269.11 350.82 277.87 354 289.15 354C299.35 354 307.45 351.9 313.45 347.7C319.45 343.5 323.59 336.3 325.87 326.1C326.35 323.58 327.67 322.32 329.83 322.32H333.43C334.51 322.32 335.41 322.68 336.13 323.4C336.97 324 337.33 324.84 337.21 325.92C336.85 332.16 334.93 338.28 331.45 344.28C328.09 350.16 322.87 355.08 315.79 359.04C308.71 362.88 299.83 364.8 289.15 364.8ZM406.396 364.8C375.556 364.8 359.716 348.24 358.876 315.12C358.756 311.52 358.696 306.48 358.696 300C358.696 293.52 358.756 288.48 358.876 284.88C359.356 268.56 363.796 256.2 372.196 247.8C380.596 239.4 391.996 235.2 406.396 235.2C420.796 235.2 432.196 239.4 440.596 247.8C448.996 256.2 453.436 268.56 453.916 284.88C454.156 292.08 454.276 297.12 454.276 300C454.276 302.88 454.156 307.92 453.916 315.12C453.076 348.24 437.236 364.8 406.396 364.8ZM406.396 354C417.196 354 425.776 350.76 432.136 344.28C438.616 337.68 442.096 327.66 442.576 314.22C442.816 307.02 442.936 302.28 442.936 300C442.936 297.72 442.816 292.98 442.576 285.78C442.096 272.34 438.616 262.38 432.136 255.9C425.656 249.3 417.076 246 406.396 246C395.716 246 387.136 249.3 380.656 255.9C374.176 262.38 370.696 272.34 370.216 285.78C370.096 289.38 370.036 294.12 370.036 300C370.036 305.88 370.096 310.62 370.216 314.22C370.696 327.66 374.116 337.68 380.476 344.28C386.956 350.76 395.596 354 406.396 354ZM486.876 363C485.676 363 484.716 362.64 483.996 361.92C483.276 361.2 482.916 360.24 482.916 359.04V241.14C482.916 239.94 483.276 238.98 483.996 238.26C484.716 237.42 485.676 237 486.876 237H525.216C537.696 237 547.536 238.86 554.736 242.58C562.056 246.18 567.216 251.52 570.216 258.6C573.336 265.68 575.016 274.68 575.256 285.6C575.376 289.2 575.436 293.94 575.436 299.82C575.436 305.82 575.376 310.62 575.256 314.22C575.016 325.74 573.336 335.04 570.216 342.12C567.216 349.08 562.176 354.3 555.096 357.78C548.016 361.26 538.356 363 526.116 363H486.876ZM525.216 352.2C534.816 352.2 542.376 350.94 547.896 348.42C553.416 345.78 557.376 341.7 559.776 336.18C562.296 330.54 563.676 322.92 563.916 313.32C564.036 309.72 564.096 305.22 564.096 299.82C564.096 294.54 564.036 290.1 563.916 286.5C563.676 273.06 560.496 263.28 554.376 257.16C548.376 250.92 538.356 247.8 524.316 247.8H494.256V352.2H525.216ZM608.693 363C607.493 363 606.533 362.64 605.813 361.92C605.093 361.2 604.733 360.24 604.733 359.04V241.14C604.733 239.94 605.093 238.98 605.813 238.26C606.533 237.42 607.493 237 608.693 237H678.893C680.213 237 681.233 237.36 681.953 238.08C682.673 238.8 683.033 239.82 683.033 241.14V243.84C683.033 245.04 682.613 246 681.773 246.72C681.053 247.44 680.093 247.8 678.893 247.8H616.073V293.7H674.933C676.253 293.7 677.273 294.06 677.993 294.78C678.713 295.5 679.073 296.52 679.073 297.84V300.54C679.073 301.74 678.653 302.7 677.812 303.42C677.093 304.14 676.133 304.5 674.933 304.5H616.073V352.2H680.332C681.653 352.2 682.673 352.56 683.393 353.28C684.113 354 684.473 355.02 684.473 356.34V359.04C684.473 360.24 684.053 361.2 683.213 361.92C682.493 362.64 681.533 363 680.332 363H608.693ZM702.256 363C701.296 363 700.456 362.64 699.736 361.92C699.016 361.2 698.656 360.36 698.656 359.4L699.016 357.42L744.556 240.6C745.516 238.2 747.256 237 749.776 237H755.896C758.416 237 760.156 238.2 761.116 240.6L806.656 357.42L807.016 359.4C807.016 360.36 806.656 361.2 805.936 361.92C805.216 362.64 804.376 363 803.416 363H799.816C798.736 363 797.836 362.7 797.116 362.1C796.516 361.5 796.096 360.9 795.856 360.3L784.696 331.5H720.976L709.816 360.3C709.576 360.9 709.096 361.5 708.376 362.1C707.776 362.7 706.936 363 705.856 363H702.256ZM780.376 320.7L752.836 249.78L725.296 320.7H780.376ZM832.286 363C831.086 363 830.126 362.64 829.406 361.92C828.686 361.2 828.326 360.24 828.326 359.04V241.14C828.326 239.94 828.686 238.98 829.406 238.26C830.126 237.42 831.086 237 832.286 237H879.266C891.146 237 900.146 240.06 906.266 246.18C912.386 252.3 915.446 259.98 915.446 269.22C915.446 276.3 913.886 282.12 910.766 286.68C907.646 291.24 903.926 294.54 899.606 296.58C904.766 299.22 909.086 303.24 912.566 308.64C916.166 314.04 917.966 320.28 917.966 327.36C917.966 333.6 916.466 339.48 913.466 345C910.586 350.4 906.326 354.78 900.686 358.14C895.046 361.38 888.326 363 880.526 363H832.286ZM876.926 291.72C885.806 291.72 892.526 289.8 897.086 285.96C901.766 282 904.106 276.42 904.106 269.22C904.106 262.14 901.766 256.8 897.086 253.2C892.526 249.6 885.806 247.8 876.926 247.8H839.666V291.72H876.926ZM878.726 352.2C887.486 352.2 894.326 349.92 899.246 345.36C904.166 340.68 906.626 334.68 906.626 327.36C906.626 319.92 904.166 313.92 899.246 309.36C894.326 304.8 887.486 302.52 878.726 302.52H839.666V352.2H878.726ZM949.884 363C948.684 363 947.724 362.64 947.004 361.92C946.284 361.2 945.924 360.24 945.924 359.04V240.96C945.924 239.76 946.284 238.8 947.004 238.08C947.724 237.36 948.684 237 949.884 237H953.304C954.504 237 955.464 237.36 956.184 238.08C956.904 238.8 957.264 239.76 957.264 240.96V352.2H1019.36C1020.68 352.2 1021.7 352.56 1022.42 353.28C1023.14 354 1023.5 355.02 1023.5 356.34V359.04C1023.5 360.24 1023.08 361.2 1022.24 361.92C1021.52 362.64 1020.56 363 1019.36 363H949.884ZM1048.5 363C1047.3 363 1046.34 362.64 1045.62 361.92C1044.9 361.2 1044.54 360.24 1044.54 359.04V241.14C1044.54 239.94 1044.9 238.98 1045.62 238.26C1046.34 237.42 1047.3 237 1048.5 237H1118.7C1120.02 237 1121.04 237.36 1121.76 238.08C1122.48 238.8 1122.84 239.82 1122.84 241.14V243.84C1122.84 245.04 1122.42 246 1121.58 246.72C1120.86 247.44 1119.9 247.8 1118.7 247.8H1055.88V293.7H1114.74C1116.06 293.7 1117.08 294.06 1117.8 294.78C1118.52 295.5 1118.88 296.52 1118.88 297.84V300.54C1118.88 301.74 1118.46 302.7 1117.62 303.42C1116.9 304.14 1115.94 304.5 1114.74 304.5H1055.88V352.2H1120.14C1121.46 352.2 1122.48 352.56 1123.2 353.28C1123.92 354 1124.28 355.02 1124.28 356.34V359.04C1124.28 360.24 1123.86 361.2 1123.02 361.92C1122.3 362.64 1121.34 363 1120.14 363H1048.5Z" fill="white"/>
<path d="M17.1 185C15.9 185 14.82 184.58 13.86 183.74C13.02 182.78 12.6 181.7 12.6 180.5V63.5C12.6 62.18 13.02 61.1 13.86 60.26C14.82 59.42 15.9 59 17.1 59H36.54C39.42 59 41.52 60.32 42.84 62.96L74.52 119.66L106.2 62.96C107.52 60.32 109.62 59 112.5 59H131.76C133.08 59 134.16 59.42 135 60.26C135.96 61.1 136.44 62.18 136.44 63.5V180.5C136.44 181.82 135.96 182.9 135 183.74C134.16 184.58 133.08 185 131.76 185H110.34C109.02 185 107.88 184.58 106.92 183.74C106.08 182.9 105.66 181.82 105.66 180.5V113L85.5 150.62C83.94 153.38 81.84 154.76 79.2 154.76H69.84C68.28 154.76 67.02 154.4 66.06 153.68C65.1 152.96 64.26 151.94 63.54 150.62L43.2 113V180.5C43.2 181.7 42.78 182.78 41.94 183.74C41.1 184.58 40.02 185 38.7 185H17.1ZM166.163 185C164.963 185 163.883 184.58 162.923 183.74C162.083 182.78 161.663 181.7 161.663 180.5V63.5C161.663 62.18 162.083 61.1 162.923 60.26C163.883 59.42 164.963 59 166.163 59H190.283C191.603 59 192.683 59.42 193.523 60.26C194.483 61.1 194.963 62.18 194.963 63.5V180.5C194.963 181.82 194.483 182.9 193.523 183.74C192.683 184.58 191.603 185 190.283 185H166.163ZM267.002 186.8C255.602 186.8 245.822 185.12 237.662 181.76C229.502 178.4 223.322 174.02 219.122 168.62C215.042 163.1 212.882 157.1 212.642 150.62C212.642 149.66 213.002 148.82 213.722 148.1C214.562 147.26 215.522 146.84 216.602 146.84H239.282C240.722 146.84 241.862 147.14 242.702 147.74C243.662 148.22 244.622 149 245.582 150.08C247.142 153.2 249.662 155.78 253.142 157.82C256.622 159.86 261.242 160.88 267.002 160.88C273.842 160.88 279.062 159.8 282.662 157.64C286.262 155.48 288.062 152.54 288.062 148.82C288.062 146.18 287.102 144.02 285.182 142.34C283.382 140.66 280.502 139.16 276.542 137.84C272.582 136.52 266.702 135.02 258.902 133.34C244.502 130.34 233.702 125.96 226.502 120.2C219.422 114.32 215.882 105.98 215.882 95.18C215.882 87.86 217.922 81.32 222.002 75.56C226.082 69.8 231.902 65.3 239.462 62.06C247.022 58.82 255.842 57.2 265.922 57.2C276.362 57.2 285.422 59 293.102 62.6C300.782 66.2 306.602 70.76 310.562 76.28C314.642 81.68 316.802 87.02 317.042 92.3C317.042 93.38 316.682 94.28 315.962 95C315.242 95.72 314.342 96.08 313.262 96.08H289.502C288.062 96.08 286.862 95.84 285.902 95.36C285.062 94.88 284.282 94.1 283.562 93.02C282.842 90.26 280.862 87.92 277.622 86C274.502 84.08 270.602 83.12 265.922 83.12C260.522 83.12 256.382 84.08 253.502 86C250.622 87.92 249.182 90.74 249.182 94.46C249.182 96.98 249.962 99.08 251.522 100.76C253.202 102.44 255.842 104 259.442 105.44C263.162 106.76 268.442 108.14 275.282 109.58C286.442 111.62 295.322 114.2 301.922 117.32C308.642 120.32 313.562 124.28 316.682 129.2C319.802 134 321.362 140.06 321.362 147.38C321.362 155.42 319.022 162.44 314.342 168.44C309.782 174.32 303.362 178.88 295.082 182.12C286.922 185.24 277.562 186.8 267.002 186.8ZM386.357 186.8C374.957 186.8 365.177 185.12 357.017 181.76C348.857 178.4 342.677 174.02 338.477 168.62C334.397 163.1 332.237 157.1 331.997 150.62C331.997 149.66 332.357 148.82 333.077 148.1C333.917 147.26 334.877 146.84 335.957 146.84H358.637C360.077 146.84 361.217 147.14 362.057 147.74C363.017 148.22 363.977 149 364.937 150.08C366.497 153.2 369.017 155.78 372.497 157.82C375.977 159.86 380.597 160.88 386.357 160.88C393.197 160.88 398.417 159.8 402.017 157.64C405.617 155.48 407.417 152.54 407.417 148.82C407.417 146.18 406.457 144.02 404.537 142.34C402.737 140.66 399.857 139.16 395.897 137.84C391.937 136.52 386.057 135.02 378.257 133.34C363.857 130.34 353.057 125.96 345.857 120.2C338.777 114.32 335.237 105.98 335.237 95.18C335.237 87.86 337.277 81.32 341.357 75.56C345.437 69.8 351.257 65.3 358.817 62.06C366.377 58.82 375.197 57.2 385.277 57.2C395.717 57.2 404.777 59 412.457 62.6C420.137 66.2 425.957 70.76 429.917 76.28C433.997 81.68 436.157 87.02 436.397 92.3C436.397 93.38 436.037 94.28 435.317 95C434.597 95.72 433.697 96.08 432.617 96.08H408.857C407.417 96.08 406.217 95.84 405.257 95.36C404.417 94.88 403.637 94.1 402.917 93.02C402.197 90.26 400.217 87.92 396.977 86C393.857 84.08 389.957 83.12 385.277 83.12C379.877 83.12 375.737 84.08 372.857 86C369.977 87.92 368.537 90.74 368.537 94.46C368.537 96.98 369.317 99.08 370.877 100.76C372.557 102.44 375.197 104 378.797 105.44C382.517 106.76 387.797 108.14 394.637 109.58C405.797 111.62 414.677 114.2 421.277 117.32C427.997 120.32 432.917 124.28 436.037 129.2C439.157 134 440.717 140.06 440.717 147.38C440.717 155.42 438.377 162.44 433.697 168.44C429.137 174.32 422.717 178.88 414.437 182.12C406.277 185.24 396.917 186.8 386.357 186.8ZM463.233 185C462.033 185 460.953 184.58 459.993 183.74C459.153 182.78 458.733 181.7 458.733 180.5V63.5C458.733 62.18 459.153 61.1 459.993 60.26C460.953 59.42 462.033 59 463.233 59H487.353C488.673 59 489.753 59.42 490.593 60.26C491.553 61.1 492.033 62.18 492.033 63.5V180.5C492.033 181.82 491.553 182.9 490.593 183.74C489.753 184.58 488.673 185 487.353 185H463.233ZM568.572 186.8C551.652 186.8 538.332 182.66 528.612 174.38C518.892 166.1 513.732 153.92 513.132 137.84C513.012 134.36 512.952 129.2 512.952 122.36C512.952 115.4 513.012 110.18 513.132 106.7C513.732 90.86 518.952 78.68 528.792 70.16C538.752 61.52 552.012 57.2 568.572 57.2C585.132 57.2 598.392 61.52 608.352 70.16C618.312 78.68 623.532 90.86 624.012 106.7C624.252 113.66 624.372 118.88 624.372 122.36C624.372 125.72 624.252 130.88 624.012 137.84C623.412 153.92 618.252 166.1 608.532 174.38C598.812 182.66 585.492 186.8 568.572 186.8ZM568.572 160.88C575.172 160.88 580.392 158.9 584.232 154.94C588.192 150.98 590.292 144.92 590.532 136.76C590.772 129.8 590.892 124.88 590.892 122C590.892 118.88 590.772 113.96 590.532 107.24C590.292 99.08 588.192 93.02 584.232 89.06C580.272 85.1 575.052 83.12 568.572 83.12C562.092 83.12 556.872 85.1 552.912 89.06C549.072 93.02 546.972 99.08 546.612 107.24C546.492 110.6 546.432 115.52 546.432 122C546.432 128.36 546.492 133.28 546.612 136.76C546.972 144.92 549.072 150.98 552.912 154.94C556.752 158.9 561.972 160.88 568.572 160.88ZM649.737 185C648.537 185 647.457 184.58 646.497 183.74C645.657 182.78 645.237 181.7 645.237 180.5V63.5C645.237 62.18 645.657 61.1 646.497 60.26C647.457 59.42 648.537 59 649.737 59H668.817C671.817 59 673.857 60.14 674.937 62.42L718.857 131.54V63.5C718.857 62.18 719.277 61.1 720.117 60.26C721.077 59.42 722.157 59 723.357 59H744.957C746.277 59 747.357 59.42 748.197 60.26C749.037 61.1 749.457 62.18 749.457 63.5V180.32C749.457 181.64 749.037 182.78 748.197 183.74C747.357 184.58 746.277 185 744.957 185H725.697C723.057 185 721.077 183.86 719.757 181.58L675.837 114.98V180.5C675.837 181.7 675.417 182.78 674.577 183.74C673.737 184.58 672.657 185 671.337 185H649.737Z" fill="white"/>
</svg>
